# xmcd CD database file
#
# Track frame offsets:
#	150
#	14203
#	24548
#	42707
#	57819
#	75190
#	89936
#	103401
#	117754
#	131676
#	150491
#
# Disc length: 2157 seconds
#
# Revision: 0
# Processed by: cddbd v1.5.2PL0 Copyright (c) Steve Scherf et al.
# Submitted via: CDex 1.70beta2
#
DISCID=93086b0b
DTITLE=Gunsmith - Gunsmith
DYEAR=2009
DGENRE=Country
TTITLE0=The Long Way Home
TTITLE1=If The Whiskey Ain't Good
TTITLE2=The Sinner
TTITLE3=Goodbye Little Girl
TTITLE4=Walking Myself To The Door
TTITLE5=Load My Gun
TTITLE6=To The Battlefield
TTITLE7=This Bottle Will Kill Me
TTITLE8=If I Was A Poorboy
TTITLE9=Tonight I Go Drinking
TTITLE10=You Didn't Want That
EXTD=YEAR: 2009
EXTT0=
EXTT1=
EXTT2=
EXTT3=
EXTT4=
EXTT5=
EXTT6=
EXTT7=
EXTT8=
EXTT9=
EXTT10=
PLAYORDER=
